<?xml version="1.0" encoding="UTF-8"?>
<svg id="Layer_1" xmlns="http://www.w3.org/2000/svg" version="1.1" viewBox="0 0 162.7 156" width="135.000000" height="110.984772">
  <defs>
    <style>
      .st0 {
        fill: #fff;
      }

      .st1 {
        fill: #96a0a6;
      }
    </style>
  </defs>
  <g id="Groupe_30986">
    <g>
      <path id="Tracé_219860" class="st0" d="M152.5,17.3c.8-.8,2.1-.8,2.9,0,.6.9.4,2.2-.5,2.9-.8.8-2.1.8-2.9,0-.6-.9-.4-2.2.5-2.9"/>
      <path class="st1" d="M153.5,21.5c-.7,0-1.4-.3-1.9-.8h0c-.8-1.3-.5-3,.7-3.9,1.1-1,2.8-1,3.9,0h0c.8,1.3.5,3-.7,3.9-.5.5-1.2.8-1.9.8ZM152.5,19.7c.5.5,1.4.5,1.9,0h0c.6-.5.8-1.3.4-1.9-.5-.5-1.4-.5-1.9,0h0c-.6.5-.8,1.3-.4,1.9Z"/>
    </g>
    <g>
      <path id="Tracé_219861" d="M152.7,17.5c.7-.7,1.8-.7,2.5,0,.5.8.3,1.9-.5,2.5-.7.7-1.8.7-2.5,0-.5-.8-.3-1.9.5-2.5M151.8,20.4c.9.9,2.4.9,3.3,0,1.1-.8,1.3-2.2.6-3.3-.9-.9-2.4-.9-3.3,0-1.1.8-1.3,2.2-.6,3.3"/>
      <path class="st1" d="M153.5,21.8c-.8,0-1.6-.3-2.2-.9h0c-.9-1.5-.6-3.3.7-4.3,1.2-1.1,3.1-1.1,4.3,0h0c.9,1.5.6,3.3-.7,4.3-.6.6-1.3.8-2.1.8ZM152.8,19.6c.4.4,1.1.3,1.5,0h.1c.5-.4.6-1,.3-1.5-.4-.4-1.1-.3-1.5,0h-.1c-.5.4-.6,1-.3,1.5Z"/>
    </g>
    <g>
      <path id="Rectangle_14549" class="st0" d="M116.8,49.8h0c-1.9-2.3-1.6-5.7.7-7.6l28.7-24.1c2.3-1.9,5.6-1.6,7.6.7h0c1.9,2.3,1.6,5.6-.7,7.6,0,0,0,0,0,0l-28.7,24.1c-2.3,1.9-5.6,1.6-7.6-.7Z"/>
      <path class="st1" d="M120.9,52.4c-1.7,0-3.5-.7-4.6-2.2-1-1.2-1.5-2.8-1.4-4.4s.9-3.1,2.1-4.1l28.7-24.1c2.6-2.1,6.4-1.8,8.5.7,2.1,2.6,1.8,6.4-.7,8.5l-28.7,24.1c-1.1,1-2.5,1.4-3.9,1.4ZM149.6,17.5c-1.1,0-2.1.4-3,1.1l-28.7,24.1c-2,1.7-2.2,4.6-.6,6.6h0c1.7,2,4.6,2.2,6.6.6l28.7-24.1c2-1.7,2.2-4.6.6-6.6-.9-1.1-2.2-1.7-3.6-1.7Z"/>
    </g>
    <g>
      <path id="Tracé_219862" d="M149.6,15.5c.3-.3.8-.2,1.1,0l5.5,6.6c.3.3.2.8,0,1.1l-35.3,29.6c-.3.3-.8.2-1.1,0l-5.5-6.6c-.3-.3-.2-.8,0-1.1l35.3-29.6ZM114,44.8c-.6.5-.6,1.3-.2,1.9l5.5,6.6c.5.6,1.3.6,1.9.2l35.3-29.6c.6-.5.6-1.3.2-1.9l-5.5-6.6c-.5-.6-1.3-.6-1.9-.2l-35.3,29.6Z"/>
      <path class="st1" d="M120.3,54.4c-.6,0-1.2-.2-1.6-.7l-5.5-6.6c-.7-.9-.6-2.2.3-2.9h0s35.3-29.6,35.3-29.6c.9-.7,2.2-.6,2.9.3l5.5,6.6c.7.9.6,2.2-.3,2.9l-35.3,29.6c-.4.3-.9.5-1.3.5ZM150.1,16.1l-35.3,29.6s0,0,0,.1l5.5,6.6s0,0,.1,0l35.3-29.6s0,0,0-.1l-5.5-6.6s0,0-.1,0h0Z"/>
    </g>
    <g>
      <path id="Tracé_219863" class="st0" d="M126.1,30.4c.2-.2.6-.2.8,0l10.7,12.7c.2.3.1.6-.1.8l-1.3,1.1c-.2.2-.6.2-.8,0l-10.7-12.7c-.2-.3-.1-.6.1-.8l1.3-1.1Z"/>
      <path class="st1" d="M135.7,45.9c-.3,0-.7-.1-.9-.4l-10.7-12.7c-.4-.6-.3-1.4.3-1.8l1.3-1.1c.5-.5,1.3-.5,1.8,0l10.7,12.7c.4.6.3,1.4-.3,1.8l-1.3,1.1c-.2.2-.5.3-.9.3ZM135.6,44.5s0,0,0,0h0ZM125.3,32l10.4,12.4,1.2-1-10.5-12.4-1.2,1ZM137,43.4h0s0,0,0,0ZM125.2,32.1h0s0,0,0,0Z"/>
    </g>
    <g>
      <path id="Tracé_219864" d="M126.3,30.6c.1-.1.3-.1.4,0l10.7,12.7c0,.1,0,.3-.1.4l-1.3,1.1c-.1.1-.3.1-.4,0l-10.7-12.7c0-.1,0-.3.1-.4l1.3-1.1ZM124.6,31.3c-.4.3-.5.8-.2,1.2l10.7,12.7c.3.3.9.4,1.2,0l1.3-1.1c.4-.3.5-.8.2-1.2l-10.7-12.7c-.3-.3-.9-.4-1.2,0l-1.3,1.1Z"/>
      <path class="st1" d="M135.7,46.2c-.4,0-.8-.2-1.2-.5l-10.7-12.7c-.5-.7-.4-1.7.3-2.2l1.3-1.1c.6-.6,1.6-.5,2.2,0l10.7,12.7c.5.7.4,1.7-.3,2.2l-1.3,1.1c-.3.3-.7.4-1,.4ZM136,44.4h0s0,0,0,0ZM125.7,32.1l10.1,12,.8-.7-10.1-12-.8.7ZM126.7,31.2h0,0Z"/>
    </g>
    <g>
      <rect id="Rectangle_14550" class="st0" x="119.1" y="34.6" width="12.2" height="16.1" transform="translate(1.9 90.5) rotate(-40)"/>
      <path class="st1" d="M125.6,53.7l-11.2-13.4,10.4-8.8,11.2,13.4-10.4,8.8ZM116.4,40.5l9.4,11.2,8.3-7-9.4-11.2-8.3,7Z"/>
    </g>
    <g>
      <path id="Tracé_219865" d="M115.6,40.7l9.4-7.9c-.1.1-.3,0-.4,0h0l10.3,12.3c-.1-.1,0-.3,0-.4h0l-9.4,7.9c.1-.1.3,0,.4,0l-10.3-12.3c.1.1,0,.3,0,.4h0M125.9,53l9.4-7.9c.1-.1.1-.3,0-.4h0s-10.3-12.3-10.3-12.3c-.1-.1-.3-.1-.4,0h0s-9.4,7.9-9.4,7.9c-.1.1-.1.3,0,.4h0s10.3,12.3,10.3,12.3c.1.1.3.1.4,0"/>
      <path class="st1" d="M125.7,53.7c-.3,0-.6-.1-.8-.3l-10.3-12.3c-.3-.4-.3-1,.1-1.4l9.4-7.9c.4-.3,1-.3,1.4.1l10.3,12.3c.2.2.2.5.2.7s-.1.5-.3.7l-9.4,7.9c-.2.2-.4.2-.6.2ZM125.4,53c.1.2.4.2.6,0l-.3-.3-.3.3ZM116.8,40.6l9.1,10.8,7.9-6.6-9.1-10.8-7.9,6.6ZM135.4,45.2h0c.2-.1.2-.4,0-.6l-.3.3.3.3h0ZM115.1,40.1c-.2.1-.2.4,0,.6l.3-.3-.3-.3ZM124.5,32.2l.3.3.3-.3c0,0-.2-.1-.3-.1-.1,0-.2,0-.3,0h0Z"/>
    </g>
    <g>
      <path id="Tracé_219866" class="st0" d="M118.2,41.5h0c.6,3.8,3.2,7,6.9,8.2h0c-.4,2.5.7,4,3.4,4.1l7.1-5.9c.4-2.6-.7-4-3.4-4.1h0c-.6-3.8-3.3-7-6.9-8.2h0c.4-2.6-.7-4-3.4-4.1l-7.1,5.9c-.4,2.5.7,4,3.4,4.1"/>
      <path class="st1" d="M128.8,54.6h-.3c-1.6,0-2.7-.6-3.4-1.4-.6-.7-.9-1.7-.8-2.9-3.5-1.4-6-4.4-6.7-8-1.3-.1-2.2-.6-2.9-1.3-.7-.8-.9-2-.7-3.5v-.3s7.5-6.3,7.5-6.3h.3c1.6,0,2.7.5,3.4,1.4.6.7.9,1.7.8,3,3.5,1.4,6,4.4,6.7,8,1.3.1,2.2.6,2.8,1.3.7.8.9,2,.7,3.6v.3s-7.5,6.3-7.5,6.3ZM115.5,37.8c-.1,1,0,1.7.4,2.2.4.5,1.2.8,2.4.9h.6s0,.6,0,.6c.6,3.6,3,6.5,6.4,7.7l.6.2v.6c-.3,1.1-.1,1.9.3,2.4.4.5,1.1.8,2.1.9l6.7-5.6c.1-1,0-1.7-.4-2.2-.4-.5-1.2-.8-2.4-.9h-1.9c0,0,1.2-1,1.2-1-.6-3.3-2.9-5.9-6-7.1l-1.1.9.3-1.8c.2-1.1,0-1.9-.4-2.4-.4-.5-1.1-.8-2.1-.8l-6.7,5.6Z"/>
    </g>
    <g>
      <path id="Tracé_219867" d="M118.4,41.7h0c-.1.1-.3,0-.4,0,0,0,0,0,0-.1.6,3.9,3.3,7.1,7.1,8.4-.1,0-.2-.2-.2-.4,0,0,0,0,0-.1,0,0,0,.1-.1.2-.3,1.1,0,2.3.6,3.2.8.8,1.9,1.3,3.1,1.2,0,0,.1,0,.2,0l7.1-5.9c0,0,0-.1,0-.2.3-1.1,0-2.3-.6-3.2-.8-.8-2-1.3-3.1-1.2.2,0,.3.1.3.3,0,0,0,.2-.1.2h0c0,0,.1-.2,0-.3-.6-3.9-3.3-7.1-7.1-8.4,0,0-.2,0-.3,0h0c.1,0,.3,0,.4,0,0,0,0,.1,0,.2.3-1.1,0-2.3-.6-3.2-.8-.8-2-1.3-3.1-1.2,0,0-.1,0-.2,0l-7.1,5.9c0,0,0,.1,0,.2-.3,1.1,0,2.3.6,3.2.8.8,1.9,1.3,3.1,1.2,0,0,.1,0,.2,0M115,37.6l7.1-5.9c0,0-.1,0-.2,0,1,0,2,.3,2.7,1,.5.8.7,1.8.5,2.8,0,.2,0,.3.2.3,0,0,.2,0,.2,0h0c0,0-.2,0-.3,0,3.5,1.2,6.1,4.3,6.7,8,0-.1,0-.2,0-.3h0c-.1.1-.1.3,0,.4,0,0,.1,0,.2.1,1,0,2,.3,2.7,1,.5.8.7,1.8.5,2.8,0,0,0-.1,0-.2l-7.1,5.9c0,0,.1,0,.2,0-1,0-2-.3-2.7-1-.5-.8-.7-1.8-.5-2.8,0,0,0,.1,0,.2,0,0,.1-.2,0-.3,0,0,0-.2-.2-.2-3.5-1.2-6.1-4.3-6.7-8,0-.2-.2-.3-.3-.2,0,0,0,0-.1,0,0,0,.1,0,.2,0-1,0-2-.3-2.7-1-.5-.8-.7-1.8-.5-2.8,0,0,0,.1,0,.2"/>
      <path class="st1" d="M128.3,54.8c-1.2,0-2.5-.5-3.4-1.5h0c-.6-.9-.9-2-.8-3-3.4-1.4-5.8-4.4-6.6-7.9-1-.1-2-.6-2.8-1.4h0c-.8-1.2-1-2.5-.7-3.8,0-.2.1-.4.3-.5l7.1-5.9c.2-.2.4-.2.7-.2,1.3,0,2.6.4,3.6,1.4h0c.6.9.9,2,.8,3,3.3,1.4,5.8,4.4,6.6,7.9,1.1.1,2,.6,2.8,1.4h0c.8,1.2,1,2.6.7,3.9,0,.2-.1.4-.3.5l-7.1,5.9c-.2.2-.4.2-.7.2,0,0-.1,0-.2,0ZM128.6,53.9v.3c0,0,.2,0,.2,0l-.2-.3ZM126.4,52.1c.5.5,1.1.7,1.8.8l6.5-5.5c0-.6,0-1.3-.4-1.8-.6-.5-1.3-.8-2.1-.8-.3,0-.6-.1-.8-.3-.2-.2-.2-.4-.2-.7-.6-3.3-2.9-6-6-7.2,0,0,0,0,0,0-.3,0-.5-.2-.6-.4-.2-.2-.2-.5-.2-.7.2-.8,0-1.6-.3-2.2-.5-.5-1.1-.7-1.8-.8l-6.5,5.5c0,.6,0,1.3.4,1.8.5.5,1.2.8,2,.8h0c.2,0,.5,0,.7.2.2.1.4.4.4.6.5,3.5,2.9,6.3,6.3,7.5.3.1.6.4.6.8,0,.1,0,.2,0,.3h0s0,0,0,.1c-.2.7,0,1.5.4,2.1ZM125.2,49.7h.4c0,0,0-.3-.3-.3v.3ZM124.9,49.4v.2c.1,0,0-.2,0-.2,0,0,0,0,0,0ZM135.7,48l.2.2c0,0,0-.1.1-.2h-.3ZM131.8,43.9c0,.2.2.3.4.3v-.4s-.4,0-.4,0ZM118.3,41.6l.2.3s0,0,0,0l-.2-.3h0ZM118.2,41.5h0s0,0,0,0h0s0,0,0,0h0s0,0,0,0l-.3-.3.3.3h0ZM118.3,41.1v.4s.4,0,.4,0c0,0,0-.1,0-.2,0,0-.2-.1-.3-.1ZM114.4,37.3h.3c0,0-.2-.2-.2-.2,0,0-.1.1-.1.2ZM124.9,35.5c0,.1,0,.2,0,.3,0,0,.1,0,.2.1v-.4c.1,0-.3,0-.3,0ZM121.6,31.2l.2.3v-.4c0,0-.2,0-.2,0h0Z"/>
    </g>
    <g>
      <path id="Tracé_219868" class="st0" d="M135.7,47.9c.4-2.6-.7-4-3.4-4.1l-7.1,5.9c-.4,2.5.7,4,3.4,4.1l7.1-5.9Z"/>
      <path class="st1" d="M128.8,54.6h-.3c-1.6,0-2.7-.6-3.4-1.4-.7-.8-.9-2-.7-3.5v-.3s7.5-6.3,7.5-6.3h.3c1.6,0,2.7.5,3.4,1.4.7.8.9,2,.7,3.6v.3s-7.5,6.3-7.5,6.3ZM125.8,50.1c-.1,1,0,1.7.4,2.2.4.5,1.1.8,2.1.9l6.7-5.6c.1-1,0-1.7-.4-2.2-.4-.5-1.1-.8-2.1-.8l-6.7,5.6Z"/>
    </g>
    <g>
      <path id="Tracé_219869" d="M135.9,48c.3-1.1,0-2.3-.6-3.2-.8-.8-2-1.3-3.1-1.2,0,0-.1,0-.2,0l-7.1,5.9c0,0,0,.1,0,.2-.3,1.1,0,2.3.6,3.2.8.8,1.9,1.3,3.1,1.2,0,0,.1,0,.2,0l7.1-5.9c0,0,0-.1,0-.2M128.6,53.6c-1,0-2-.3-2.7-1-.5-.8-.7-1.8-.5-2.8,0,0,0,.1,0,.2l7.1-5.9c0,0-.1,0-.2,0,1,0,2,.3,2.7,1,.5.8.7,1.8.5,2.8,0,0,0-.1,0-.2l-7.1,5.9c0,0,.1,0,.2,0"/>
      <path class="st1" d="M128.3,54.8c-1.2,0-2.5-.5-3.4-1.5h0c-.8-1.2-1-2.5-.7-3.8,0-.2.1-.4.3-.5l7.1-5.9c.2-.2.4-.2.7-.2,1.3,0,2.6.4,3.6,1.4h0c.8,1.2,1,2.6.7,3.9h0c0,.2-.2.4-.3.5l-7.1,5.9c-.2.2-.4.2-.7.2,0,0-.1,0-.2,0ZM128.6,53.9v.4c0,0,.2,0,.2,0l-.2-.3ZM126.4,52.1c.5.5,1.1.7,1.8.8l6.5-5.5c0-.6,0-1.3-.4-1.8-.5-.5-1.1-.7-1.8-.8l-6.5,5.5c0,.6,0,1.3.4,1.8ZM124.7,49.6h.3c0,0-.2-.2-.2-.2h0c0,0-.1.1-.1.2ZM135.7,48l.2.2c0,0,0-.1.1-.2h-.3ZM135.7,47.9h.3s-.3,0-.3,0ZM132.2,43.4c0,0-.1,0-.2,0l.2.3v-.4Z"/>
    </g>
    <g>
      <path id="Tracé_219870" class="st0" d="M125.3,35.6c.4-2.6-.7-4-3.4-4.1l-7.1,5.9c-.4,2.5.7,4,3.4,4.1l7.1-5.9Z"/>
      <path class="st1" d="M118.5,42.2h-.3c-1.6,0-2.7-.6-3.4-1.4-.7-.8-.9-2-.7-3.5v-.3s7.5-6.3,7.5-6.3h.3c1.6,0,2.7.5,3.4,1.4.7.8.9,2,.7,3.6v.3s-7.5,6.3-7.5,6.3ZM115.5,37.8c-.1,1,0,1.7.4,2.2.4.5,1.1.8,2.1.9l6.6-5.6c.1-1,0-1.7-.4-2.2-.4-.5-1.1-.8-2.1-.8l-6.7,5.6Z"/>
    </g>
    <g>
      <path id="Tracé_219871" d="M125.6,35.6c.3-1.1,0-2.3-.6-3.2-.8-.8-2-1.3-3.1-1.2,0,0-.1,0-.2,0l-7.1,5.9c0,0,0,.1,0,.2-.3,1.1,0,2.3.6,3.2.8.8,1.9,1.3,3.1,1.2,0,0,.1,0,.2,0l7.1-5.9c0,0,0-.1,0-.2M118.3,41.2c-1,0-2-.3-2.7-1-.5-.8-.7-1.8-.5-2.8,0,0,0,.1,0,.2l7.1-5.9c0,0-.1,0-.2,0,1,0,2,.3,2.7,1,.5.8.7,1.8.5,2.8,0,0,0-.1,0-.2l-7.1,5.9c0,0,.1,0,.2,0"/>
      <path class="st1" d="M118,42.5c-1.2,0-2.5-.5-3.4-1.5h0c-.8-1.2-1-2.5-.7-3.8,0-.2.1-.4.3-.5l7.1-5.9c.2-.2.4-.2.7-.2,1.3,0,2.6.4,3.6,1.4h0c.8,1.2,1,2.6.7,3.9h0c0,.2-.2.4-.3.5l-7.1,5.9c-.2.2-.5.2-.7.2,0,0-.1,0-.2,0ZM118.3,41.6v.4c0,0,.2,0,.2,0l-.2-.3ZM116.1,39.8c.5.5,1.1.7,1.8.8l6.5-5.5c0-.6,0-1.3-.4-1.8-.5-.5-1.1-.7-1.8-.8l-6.5,5.5c0,.6,0,1.3.4,1.8ZM114.4,37.3h.3c0,0-.2-.2-.2-.2,0,0-.1.1-.1.2ZM125.4,35.7l.2.2c0,0,0-.1.1-.2h-.3ZM125.3,35.6h.3s-.3,0-.3,0ZM121.8,31.1c0,0-.1,0-.2,0l.2.3v-.3Z"/>
    </g>
    <g>
      <path id="Tracé_219872" class="st0" d="M125.3,35.6l-7.1,5.9c.6,3.8,3.2,7,6.9,8.2l7.1-6c-.6-3.8-3.3-7-6.9-8.2"/>
      <path class="st1" d="M125.3,50.5h-.4c-3.9-1.5-6.7-4.8-7.4-8.9v-.4c0,0,7.3-6.2,7.3-6.2l.5.5.2-.7c3.9,1.3,6.7,4.7,7.4,8.8v.4c0,0-7.6,6.5-7.6,6.5ZM119,41.8c.6,3.3,2.9,5.9,6,7.1l6.5-5.4c-.6-3.3-2.9-5.9-6-7.1l-6.5,5.4Z"/>
    </g>
    <g>
      <path id="Tracé_219873" d="M125.2,35.4l-7.1,6c0,0-.1.2,0,.3.6,3.9,3.3,7.1,7.1,8.4,0,0,.2,0,.3,0l7.1-6c0,0,.1-.2,0-.3-.6-3.9-3.3-7.1-7.1-8.4,0,0-.2,0-.3,0M132.1,43.6l-7.1,6c0,0,.2,0,.3,0-3.5-1.2-6.1-4.3-6.7-8,0,.1,0,.2,0,.3l7.1-6c0,0-.2,0-.3,0,3.5,1.2,6.1,4.3,6.7,8,0-.1,0-.2,0-.3"/>
      <path class="st1" d="M125.1,50.7c-.1,0-.2,0-.3,0-4-1.4-6.9-4.8-7.5-9,0-.3,0-.7.3-.9l7.1-6c.3-.2.7-.3,1-.2,4,1.4,6.8,4.8,7.5,9,0,.3,0,.7-.3.9l-7.1,6c-.2.2-.4.2-.6.2ZM125,50.1c.1,0,.3,0,.4,0l-.3-.3v.4ZM119.3,41.9c.7,3,2.8,5.5,5.6,6.7l6.2-5.2c-.7-3-2.8-5.5-5.6-6.7l-6.2,5.2ZM132.2,43.8l.3.3c.1,0,.2-.2.1-.4h-.4ZM118,41.2c-.1,0-.2.2-.1.4h.4c0,0-.3-.4-.3-.4ZM125.1,35.3l.3.3v-.4s-.1,0-.3,0Z"/>
    </g>
    <g>
      <rect id="Rectangle_14551" class="st0" x="82.5" y="63.6" width="15.1" height="17.2" transform="translate(-25.3 74.8) rotate(-40)"/>
      <path class="st1" d="M89.7,84.6l-11.9-14.2,12.7-10.6,11.9,14.2-12.7,10.6ZM79.7,70.6l10.1,12.1,10.5-8.8-10.1-12.1-10.5,8.8Z"/>
    </g>
    <g>
      <path id="Tracé_219874" d="M78.5,70.7l11,13.1c.1.1.3.1.4,0l11.6-9.7c.1-.1.1-.3,0-.4h0s-11-13.1-11-13.1c-.1-.1-.3-.1-.4,0h0s-11.6,9.7-11.6,9.7c-.1.1-.1.3,0,.4h0M90.1,60.9l11,13.1c-.1-.1,0-.3,0-.4h0l-11.6,9.7c.1-.1.3,0,.4,0,0,0,0,0,0,0l-11-13.1c.1.1,0,.3,0,.4h0s11.6-9.7,11.6-9.7c-.1.1-.3,0-.4,0h0"/>
      <path class="st1" d="M89.8,84.6c-.3,0-.6-.1-.8-.4l-11-13.1c-.3-.4-.3-1,.1-1.4l11.6-9.7c.4-.3,1-.3,1.4.1l11,13.1c.3.4.3,1-.1,1.4l-11.6,9.7c-.2.2-.4.2-.6.2ZM89.5,83.9h0c0,0,.2.1.3.1,0,0,.2,0,.3,0l-.3-.3-.3.3h0ZM80.1,70.6l9.8,11.6,10.1-8.5-9.8-11.6-10.1,8.5ZM101.4,73.9l.3.3c0,0,.1-.2.1-.3,0-.1,0-.2,0-.3l-.3.3ZM78.5,70.2c-.2.1-.2.4,0,.6l.3-.3-.3-.3h0ZM90.4,60.3c0,0-.2,0-.3,0l.3.3.3-.3h0c0,0-.2-.1-.3-.1Z"/>
    </g>
    <g>
      <path id="Tracé_219875" class="st0" d="M130.4,52.3c.2-.2.3-.5,0-.8l-13.1-15.6c-.2-.2-.5-.3-.8,0l-32.6,27.4c-.2.2-.3.5,0,.8l13.1,15.6c.2.2.5.3.8,0l32.6-27.4Z"/>
      <path class="st1" d="M97.5,80.5c-.4,0-.7-.2-.9-.4l-13.1-15.6c-.2-.3-.3-.6-.3-.9,0-.3.2-.6.4-.8l32.6-27.4c.5-.4,1.3-.4,1.7.2l13.1,15.6c.2.3.3.6.3.9,0,.3-.2.6-.4.8l-32.6,27.4c-.2.2-.5.3-.8.3ZM84.6,63.7l12.9,15.4,32.3-27.1-12.9-15.4-32.3,27.1ZM129.9,51.8s0,0,0,0h0Z"/>
    </g>
    <g>
      <path id="Tracé_219876" d="M130.6,52.5c.3-.3.4-.8.1-1.2l-13.1-15.6c-.3-.3-.8-.4-1.2-.1l-32.6,27.4c-.3.3-.4.8-.1,1.2l13.1,15.6c.3.3.8.4,1.2.1l32.6-27.4ZM97.6,79.5c-.1,0-.3,0-.4,0h0l-13.1-15.6c0-.1,0-.3,0-.4l32.6-27.4c.1,0,.3,0,.4,0l13.1,15.6c0,.1,0,.3,0,.4l-32.6,27.4Z"/>
      <path class="st1" d="M97.5,80.8s0,0-.1,0c-.4,0-.8-.2-1-.5l-13.1-15.6c-.5-.6-.5-1.6.2-2.1l32.6-27.4c.6-.5,1.6-.5,2.1.2l13.1,15.6c.5.6.5,1.6-.2,2.1h0s-32.6,27.4-32.6,27.4c-.3.2-.6.4-1,.4ZM85,63.7l12.5,14.9,31.9-26.8-12.5-14.9-31.9,26.8ZM129.8,51.6s0,0,0,0h0Z"/>
    </g>
    <g>
      <path id="Tracé_219877" class="st0" d="M81.4,65.4c.2-.2.7,0,1.1.5l12.4,14.8c.4.5.5,1,.3,1.1l-26.2,22-13.8-16.4,26.2-22Z"/>
      <path class="st1" d="M69,104.8l-14.7-17.5,26.7-22.4c.5-.4,1.4-.2,2.1.6l12.4,14.8c.4.5.6,1,.6,1.4,0,.3-.1.5-.3.7l-26.7,22.4ZM56.3,87.5l12.9,15.4,25.4-21.3c0,0,0-.2-.2-.3l-12.4-14.8c-.1-.1-.2-.2-.3-.3l-25.4,21.3ZM94.8,81.3h0s0,0,0,0ZM81.9,66h0Z"/>
    </g>
    <g>
      <path id="Tracé_219878" d="M81.6,65.7s0,0,0,0c.3,0,.5.2.7.5l12.4,14.8c.2.2.3.5.3.8,0,0,0,0,0,0l-26.2,22c.1,0,.3,0,.4,0l-13.8-16.4c.1.1,0,.3,0,.4h0s26.2-22,26.2-22ZM55,87.6l13.8,16.4c.1.1.3.1.4,0l26.2-22c.3-.3.2-.9-.3-1.5l-12.4-14.8c-.5-.6-1.1-.8-1.5-.5l-26.2,22c-.1.1-.1.3,0,.4"/>
      <path class="st1" d="M69.1,104.8c-.3,0-.6-.1-.8-.4l-13.8-16.4c-.3-.4-.3-1,.1-1.4l24.7-20.7h-.1s.3-.2.3-.2l1.2-1c.7-.6,1.7-.3,2.5.6l12.4,14.8c.3.4.5.8.6,1.2,0,.5,0,1-.4,1.3l-26.2,22c-.2.2-.4.2-.6.2ZM69.1,103.8l-.3.3c.1.2.4.2.6,0l-.3-.3ZM56.7,87.5l12.5,14.9,25-21s0,0,0,0l-12.5-14.8s0,0,0,0l-25,21ZM55,87.1c0,0-.1.2-.1.3,0,.1,0,.2,0,.3l.3-.3-.3-.3Z"/>
    </g>
    <g>
      <path id="Tracé_219879" class="st0" d="M58.3,81.4s17.2,20.5,17.2,20.5l2.8-2.3c.5-.4.5-1.1.1-1.5l-15.9-18.9c-.4-.5-1.1-.5-1.5-.1h0s-2.8,2.3-2.8,2.3Z"/>
      <path class="st1" d="M75.4,102.9l-15-17.9q-3.1-3.7-2.6-4.2h0s2.8-2.3,2.8-2.3c.4-.3.8-.4,1.3-.4.5,0,.9.3,1.2.6l15.9,18.9c.3.4.4.8.4,1.3,0,.5-.3.9-.6,1.2l-3.3,2.8ZM59.3,81.5c2.1,2.5,11,13.2,16.3,19.5l2.2-1.9c0,0,.1-.2.1-.3s0-.2,0-.3l-15.9-18.9c0,0-.2-.1-.3-.1,0,0-.2,0-.3,0l-2.2,1.9ZM58.7,81.9h0Z"/>
    </g>
    <g>
      <path id="Tracé_219880" d="M58.1,81.1c0,0,0,.1,0,.2q0,.1.8,1.1l2,2.3,5.9,7.1,8.6,10.3c.1.1.3.1.4,0l2.8-2.3c.6-.5.6-1.3.2-1.9l-15.9-18.9c-.5-.6-1.3-.6-1.9-.2l-2.8,2.3ZM61.2,79.3c.3-.3.8-.2,1.1,0l15.9,18.9c.3.3.2.8,0,1.1h0l-2.8,2.3c.1-.1.3,0,.4,0-5.9-7-17-20.2-17.2-20.5,0,.1,0,.3,0,.4l2.8-2.3Z"/>
      <path class="st1" d="M75.5,102.9c-.3,0-.6-.1-.8-.3l-16.5-19.6c-1-1.1-1-1.2-1-1.6,0-.3.1-.5.3-.7h0s2.8-2.3,2.8-2.3c.9-.7,2.2-.6,2.9.3l15.9,18.9c.7.9.6,2.2-.3,2.9l-2.8,2.3c-.2.2-.4.2-.6.2ZM75.5,101.9l-.3.3c.1.2.4.2.6,0l-.3-.3ZM59.7,81.5c1.7,2,7.1,8.4,16,19l2-1.7h0c0-.1-15.9-19-15.9-19,0,0,0,0-.1,0h0s-2,1.7-2,1.7ZM58,81.6s0,0,0,0c0,0,0,0,0,0ZM58,81c-.2.1-.2.4,0,.6l.3-.2-.3-.3Z"/>
    </g>
    <g>
      <path id="Tracé_219881" class="st0" d="M18.9,85.3c-.2,0-.2-.3-.1-.5,0,0,0,0,0,0l4-7.6c0-.2.3-.2.5-.2l16.1,8.4c.2,0,.2.3.1.5,0,0,0,0,0,0l-4,7.6c0,.2-.3.2-.5.2l-16.1-8.4Z"/>
      <path class="st1" d="M35.1,94.5c-.2,0-.3,0-.5-.1l-16.1-8.4c-.2-.1-.4-.4-.5-.6,0-.3,0-.6,0-.8l4-7.6c.1-.2.3-.4.6-.5.3,0,.6,0,.8,0l16.1,8.4c.3.1.4.4.5.6,0,.3,0,.6,0,.8l-4,7.6c-.1.2-.3.4-.6.5-.1,0-.2,0-.3,0ZM34.8,93.3s0,0,0,0h0ZM19.5,84.9l15.4,8.1,3.7-7-15.4-8.1-3.7,7ZM38.8,85.6s0,0,0,0h0ZM19.3,85.2h0s0,0,0,0ZM23.3,77.5h0s0,0,0,0Z"/>
    </g>
    <g>
      <path id="Tracé_219882" d="M19,85.1s0,0,0,0c0,0,0,0,0,0l4-7.6s0,0,0,0c0,0,0,0,0,0l16.1,8.4s0,0,0,0c0,0,0,0,0,0l-4,7.6s0,0,0,0c0,0,0,0,0,0l-16.1-8.4ZM34.8,94c.3.2.7,0,.9-.3l4-7.6c.2-.3,0-.7-.3-.9l-16.1-8.4c-.3-.2-.7,0-.9.3,0,0,0,0,0,0l-4,7.6c-.2.3,0,.7.3.9l16.1,8.4Z"/>
      <path class="st1" d="M35.1,94.8c-.2,0-.4,0-.6-.2h0s-16.1-8.4-16.1-8.4c-.7-.3-.9-1.2-.6-1.8l4-7.6c.2-.3.4-.6.8-.7.3-.1.7,0,1,0l16.1,8.4c.7.3.9,1.2.6,1.8l-4,7.6c-.2.5-.7.7-1.2.7ZM19.9,84.8l14.9,7.8,3.4-6.5-14.9-7.8-3.4,6.5Z"/>
    </g>
    <g>
      <path id="Tracé_219883" class="st0" d="M16.4,84.6c0,0,0-.2,0-.4l4.4-8.4c0-.2.2-.3.3-.3l5.7,3c0,0,0,.2,0,.4l-4.4,8.4c0,.2-.2.3-.3.3l-5.7-3Z"/>
      <path class="st1" d="M22.1,88.4h-.3c0-.1-6-3.3-6-3.3v-.3c-.2-.3,0-.7,0-.9l4.4-8.4c.1-.2.3-.5.7-.6h.3c0,0,.3,0,.3,0l6,3.1v.3c.2.3,0,.7,0,.9l-4.4,8.4c-.1.2-.3.5-.7.6h-.3ZM22.5,87h0s0,0,0,0ZM17.3,84.3l4.7,2.5,4.1-7.9-4.7-2.5-4.1,7.9ZM16.8,84h0s0,0,0,0ZM26.6,79.1s0,0,0,0h0ZM20.9,76.1s0,0,0,0h0Z"/>
    </g>
    <g>
      <path id="Tracé_219884" d="M16.6,84.4c0,0,.1,0,.1.2,0,0,0-.1,0-.2l4.4-8.4c0,0,0-.1.1-.2,0,0-.1,0-.2,0l5.7,3c0,0-.1,0-.1-.2,0,0,0,.1,0,.2l-4.4,8.4c0,0,0,.1-.1.2,0,0,.1,0,.2,0l-5.7-3M22,87.9c.2.1.5,0,.7-.4l4.4-8.4c.1-.2.1-.4.1-.6,0,0,0-.2-.2-.2l-5.7-3c-.2-.1-.5,0-.7.4l-4.4,8.4c-.1.2-.2.4-.1.6,0,0,0,.2.2.2l5.7,3"/>
      <path class="st1" d="M22.2,88.6c-.2,0-.3,0-.5-.1h0s-5.7-3-5.7-3c-.2-.1-.4-.3-.5-.6h0c0-.5,0-.9.2-1.2l4.4-8.3c.4-.8,1.1-1,1.6-.7l5.7,3c.2.1.4.3.5.6h0c0,.5,0,.8-.2,1.2l-4.4,8.4c-.3.6-.7.8-1.1.8ZM22,88c.1,0,.3,0,.4,0l-.3-.3-.2.4ZM17.7,84.1l4.2,2.2,3.8-7.4-4.2-2.2-3.8,7.3ZM16,84.6c0,.2.1.3.2.4l.2-.4h0s-.2,0-.2,0h.1s-.3,0-.3,0ZM27.1,78.5h.3c0-.1-.1-.3-.3-.4l-.2.4h0s.3,0,.3,0h-.1ZM21.2,75.1c0,0-.2,0-.2,0l.3.3.2-.3c0,0-.1,0-.2,0Z"/>
    </g>
    <g>
      <path id="Tracé_219885" class="st0" d="M20.8,87.8v-.9c-.1,0,4.4-9.2,4.4-9.2l.8-.5v.9c.1,0-4.4,9.2-4.4,9.2l-.8.5Z"/>
      <polygon class="st1" points="20.2 88.9 19.9 86.7 24.7 77.1 26.6 76.1 26.9 78.2 22.1 87.8 20.2 88.9"/>
    </g>
    <g>
      <path id="Tracé_219886" d="M21,87.7v-.9c-.1,0-.1.1-.1.2l4.6-9.2c0,0,0,0-.1.1l.8-.5c-.1,0-.3,0-.4-.1,0,0,0,0,0-.1v.9c.1,0,.1-.1.1-.2l-4.6,9.2c0,0,0,0,.1-.1l-.8.4c.1,0,.3,0,.4.1,0,0,0,0,0,.1M21.9,87.4l4.6-9.2s0-.1,0-.2v-.9c-.1-.2-.3-.3-.4-.3,0,0,0,0-.1,0l-.8.5c0,0,0,0-.1.1l-4.6,9.2s0,.1,0,.2v1c.1.2.3.3.4.3,0,0,0,0,.1,0l.8-.5c0,0,0,0,.1-.1"/>
      <path class="st1" d="M20.8,88.7c-.2,0-.4,0-.6-.2-.2-.2-.3-.4-.4-.7v-1c-.1-.2,0-.4,0-.6l4.6-9.2c0-.2.2-.3.4-.4l.8-.5c.1,0,.2,0,.4-.1.5,0,1,.3,1.1.9v1c.1.2,0,.4,0,.6l-4.6,9.2h-.1c0,0,.1,0,.1,0,0,.2-.2.3-.4.4l-.8.5c-.1,0-.2,0-.3.1,0,0,0,0-.1,0ZM20.4,87.8s0,0,0,.1c.1.2.4.3.6.2l-.2-.4h-.4ZM21.7,87.6h0c0,0,.1,0,.2,0h-.3c0-.1,0,0,0,0ZM20.3,86.6c0,0,0,.2,0,.2h.2s.1,0,.1,0h-.3ZM26.5,78.3h0s0,0,0,0ZM26.3,78.2h.3c0,0,0,0,0,0h-.2s-.1,0-.1,0ZM25,77.2c0,0-.1.1-.2.2h.3c0,.1,0,0,0,0h0ZM26.1,76.7c0,0-.1,0-.2,0l.2.4h.4c0-.1,0-.2,0-.2,0,0-.1-.2-.2-.2,0,0,0,0-.1,0ZM26.5,77.1h0s0,0,0,0Z"/>
    </g>
    <g>
      <path id="Tracé_219887" class="st0" d="M19.1,86.9v-.9c-.1,0,4.4-9.2,4.4-9.2l.8-.5v.9c.1,0-4.4,9.2-4.4,9.2l-.8.5Z"/>
      <polygon class="st1" points="18.5 88 18.2 85.8 23 76.2 24.9 75.2 25.2 77.3 20.4 86.9 18.5 88"/>
    </g>
    <g>
      <path id="Tracé_219888" d="M19.3,86.8v-.9c-.1,0-.1.1-.1.2l4.6-9.2c0,0,0,0-.1.1l.8-.5c-.1,0-.3,0-.4-.1,0,0,0,0,0-.1v1c.1,0,.1-.1.1-.2l-4.6,9.2c0,0,0,0,.1-.1l-.8.5c.1,0,.3,0,.4.1,0,0,0,0,0,.1M20.1,86.5l4.6-9.2s0-.1,0-.2v-1c-.1-.2-.3-.3-.4-.3,0,0,0,0-.1,0l-.8.5c0,0,0,0-.1.1l-4.6,9.2s0,.1,0,.2v1c.1.2.3.3.4.2,0,0,0,0,.1,0l.8-.5c0,0,0,0,.1-.1"/>
      <path class="st1" d="M19,87.9c-.2,0-.4,0-.6-.2-.2-.2-.3-.4-.4-.7v-1c-.1-.2,0-.4,0-.6l4.6-9.2c0-.2.2-.3.4-.4l.8-.5c.1,0,.2,0,.3-.1.3,0,.5,0,.7.2.2.2.3.4.4.7v.9c.1.2,0,.4,0,.6l-4.6,9.2h-.1c0,0,.1,0,.1,0,0,.2-.2.3-.4.4l-.8.4c-.1,0-.2,0-.4.1,0,0,0,0-.1,0ZM18.6,86.9c0,0,0,.1,0,.1,0,0,.1.2.2.2.1,0,.2,0,.3,0l-.2-.4h-.4ZM20,86.7h0c0,0,.1,0,.2,0h-.3c0-.1,0,0,0,0ZM18.6,85.7c0,0,0,.2,0,.2h.2s.1,0,.1,0h-.3ZM24.6,77.3h.3c0,0,0,0,0,0h-.3ZM23.1,76.5h.3c0,.1,0,0,0,0h0c0,0-.1,0-.2,0h0ZM24.3,75.8c0,0-.1,0-.2,0l.2.4h.4c0,0,0-.2,0-.2,0-.1-.2-.2-.4-.2Z"/>
    </g>
    <g>
      <path id="Tracé_219889" class="st0" d="M17.3,86v-.9c-.1,0,4.4-9.2,4.4-9.2l.8-.5v.9c.1,0-4.4,9.2-4.4,9.2l-.8.5Z"/>
      <polygon class="st1" points="16.8 87.1 16.5 84.9 21.3 75.3 23.2 74.3 23.5 76.4 18.7 86 16.8 87.1"/>
    </g>
    <g>
      <path id="Tracé_219890" d="M17.6,85.9v-.9c-.1,0-.1.1-.1.2l4.6-9.2c0,0,0,0-.1.1l.8-.5c-.1,0-.3,0-.4-.1,0,0,0,0,0-.1v.9c.1,0,.1-.1.1-.2l-4.6,9.2c0,0,0,0,.1-.1l-.8.4c.1,0,.3,0,.4.1,0,0,0,0,0,.1M18.4,85.6l4.6-9.2s0-.1,0-.2v-.9c-.1-.2-.3-.3-.4-.3,0,0,0,0-.1,0l-.8.5c0,0,0,0-.1.1l-4.6,9.2s0,.1,0,.2v1c.1.2.3.3.4.3,0,0,0,0,.1,0l.8-.5c0,0,0,0,.1-.1"/>
      <path class="st1" d="M17.3,87c-.2,0-.4,0-.6-.2-.2-.2-.3-.4-.4-.7v-1c-.1-.2,0-.4,0-.6l4.5-9.2c0-.2.2-.3.4-.4l.8-.5c.1,0,.2,0,.4-.1.3,0,.5,0,.7.2.2.2.3.4.4.7v.9c.1.2,0,.4,0,.6l-4.6,9.2h-.1c0,0,.1,0,.1,0,0,.2-.2.3-.4.4l-.8.4c-.1,0-.2,0-.4.1,0,0,0,0-.1,0ZM16.9,86s0,0,0,.1c.1.2.4.3.6.2l-.2-.4h-.4ZM18.3,85.8h0c0,0,.1,0,.2,0h-.3c0-.1,0,0,0,0ZM16.9,84.8c0,0,0,.1,0,.2h.2s.1,0,.1,0h-.3c0-.1,0-.1,0-.1ZM22.8,76.4h.3c0,0,0,0,0,0h-.2s-.1,0-.1,0ZM21.4,75.6h.3c0,.1,0,0,0,0h0c0,0-.1,0-.2,0h0ZM22.6,75c0,0-.1,0-.2,0l.2.4h.4c0,0,0-.2,0-.2,0-.1-.2-.2-.4-.2Z"/>
    </g>
    <g>
      <path id="Tracé_219891" class="st0" d="M26.4,91.6c-.1,0-.1-.3,0-.6l5.7-11c.1-.3.3-.4.5-.3l12.4,6.5c.1,0,.1.3,0,.6l-5.7,11c-.1.3-.3.4-.5.3l-12.4-6.5Z"/>
      <path class="st1" d="M38.9,98.8c-.1,0-.3,0-.4,0l-12.4-6.5c-.2-.1-.4-.3-.4-.5,0-.3,0-.7.1-1l5.7-11c.3-.6.9-.9,1.4-.6l12.4,6.5c.2.1.4.3.4.5,0,.3,0,.7-.1,1l-5.7,11c-.2.3-.5.6-.8.7,0,0-.2,0-.3,0ZM39.1,97.5h0s0,0,0,0ZM27.1,91.2l11.6,6.1,5.6-10.6-11.6-6.1-5.6,10.6ZM44.7,86.8s0,0,0,0h0Z"/>
    </g>
    <g>
      <path id="Tracé_219892" d="M26.6,91.4s0,0,0,0c0,0,0-.2,0-.3l5.7-11c0,0,0-.2.2-.2,0,0,0,0,0,0l12.4,6.5s0,0,0,0c0,0,0,.2,0,.3l-5.7,11c0,0,0,.2-.2.2,0,0,0,0,0,0l-12.4-6.5M38.7,98.4c.3.1.7,0,.9-.4l5.7-11c.1-.2.2-.5.1-.7,0-.1-.1-.2-.2-.3l-12.4-6.5c-.1,0-.2,0-.4,0-.2,0-.4.3-.5.5l-5.7,11c-.1.2-.2.5-.1.7,0,.1.1.2.2.3l12.4,6.5"/>
      <path class="st1" d="M38.9,99.1c-.2,0-.4,0-.5-.1l-12.4-6.5c-.3-.2-.5-.4-.6-.7-.1-.4,0-.9.2-1.2l5.7-10.9c.2-.4.5-.7.9-.8.3-.1.6,0,.9,0l12.4,6.5c.3.2.5.4.6.7.1.4,0,.9-.2,1.2l-5.7,10.9c-.2.3-.4.6-.7.7-.2,0-.4.1-.6.1ZM38.4,97.3s0,0,0,0h0ZM27.5,91.1l11.1,5.8,5.3-10.1-11.1-5.8-5.3,10.1ZM27.3,91.5h0s0,0,0,0ZM44.2,86.4s0,0,0,0h0ZM33.1,80.5h0s0,0,0,0Z"/>
    </g>
    <g>
      <path id="Tracé_219893" class="st0" d="M32.6,125.3l2.1,2.5-16,13.4c-.2.2-.6.2-.8,0l-1.4-1.6c-.2-.2-.2-.6,0-.8l16-13.4Z"/>
      <path class="st1" d="M18.3,142.1c-.4,0-.7-.1-.9-.4l-1.4-1.6c-.2-.3-.3-.6-.3-.9,0-.3.2-.6.4-.8l16.6-13.9,3,3.5-16.6,13.9c-.2.2-.5.3-.8.3ZM17.1,139.2l1.2,1.4,15.4-12.9-1.2-1.4-15.4,12.9Z"/>
    </g>
    <g>
      <path id="Tracé_219894" d="M32.4,125.5l2.1,2.5c-.1-.1,0-.3,0-.4h0l-16,13.4c-.1,0-.3,0-.4,0l-1.4-1.6c0-.1,0-.3,0-.4h0l16-13.4c-.1.1-.3,0-.4,0h0M16.4,138.6c-.3.3-.4.8-.1,1.2l1.4,1.6c.3.3.8.4,1.2.1l16-13.4c.1-.1.1-.3,0-.4h0s-2.1-2.5-2.1-2.5c-.1-.1-.3-.1-.4,0h0l-16,13.4Z"/>
      <path class="st1" d="M18.3,142.4c-.4,0-.9-.2-1.2-.5l-1.4-1.6c-.5-.6-.5-1.6.2-2.1h0s16-13.4,16-13.4c.4-.3,1-.3,1.4.1l2.1,2.5c.3.4.3,1-.1,1.4l-16,13.4c-.3.2-.6.4-1,.4ZM17.5,139.2l.8,1,14.9-12.5-.8-1-14.9,12.5ZM34.7,127.8l.3.3c.2-.1.2-.4,0-.6l-.3.3ZM32.6,124.9c0,0-.2,0-.3,0l.3.3.3-.3c0,0-.2-.1-.3-.1Z"/>
    </g>
    <g>
      <path id="Tracé_219895" class="st0" d="M25.7,117.1l2.1,2.5-16,13.4c-.2.2-.6.2-.8,0l-1.4-1.6c-.2-.2-.2-.6,0-.8l16-13.4Z"/>
      <path class="st1" d="M11.4,133.9c-.4,0-.7-.2-.9-.4l-1.4-1.6c-.2-.3-.3-.6-.3-.9,0-.3.2-.6.4-.8l16.6-13.9,3,3.5-16.6,13.9c-.2.2-.5.3-.8.3ZM10.3,131l1.2,1.4,15.4-12.9-1.2-1.4-15.4,12.9Z"/>
    </g>
    <g>
      <path id="Tracé_219896" d="M25.5,117.3l2.1,2.5c-.1-.1,0-.3,0-.4h0l-16,13.4c-.1,0-.3,0-.4,0l-1.4-1.6c0-.1,0-.3,0-.4h0l16-13.4c-.1.1-.3,0-.4,0h0M9.5,130.3c-.3.3-.4.8-.1,1.2l1.4,1.6c.3.3.8.4,1.2.1l16-13.4c.1-.1.1-.3,0-.4h0s-2.1-2.5-2.1-2.5c-.1-.1-.3-.1-.4,0h0l-16,13.4Z"/>
      <path class="st1" d="M11.4,134.1c-.4,0-.9-.2-1.2-.5l-1.4-1.6c-.5-.6-.5-1.6.2-2.1h0s16-13.4,16-13.4c.2-.2.5-.3.7-.2.3,0,.5.1.7.3l2.1,2.5c.3.4.3,1-.1,1.4l-16,13.4c-.3.2-.6.4-1,.4ZM10.6,131l.8,1,14.9-12.5-.8-1-14.9,12.5ZM10.3,131.3h0s0,0,0,0ZM28,119.9h0c.2-.1.2-.4,0-.6l-.3.3.3.3h0ZM25.7,116.7c0,0-.2,0-.3,0l.3.3.3-.3c0,0-.2-.1-.3-.1Z"/>
    </g>
    <g>
      <path id="Rectangle_14552" class="st0" d="M26.3,137.7l-11.9-14.1c-1.5-1.8-1.3-4.4.5-5.9h0c1.8-1.5,4.4-1.3,5.9.5l11.9,14.1c1.5,1.8,1.3,4.4-.5,5.9h0c-1.8,1.5-4.4,1.3-5.9-.5Z"/>
      <path class="st1" d="M29.5,139.9c-.1,0-.3,0-.4,0-1.3-.1-2.5-.7-3.3-1.7l-11.9-14.1c-.8-1-1.2-2.3-1.1-3.6.1-1.3.7-2.5,1.7-3.3,1-.8,2.3-1.2,3.6-1.1,1.3.1,2.5.7,3.3,1.7l11.9,14.1c.8,1,1.2,2.3,1.1,3.6-.1,1.3-.7,2.5-1.7,3.3-.9.7-2,1.1-3.1,1.1ZM17.6,117.5c-.8,0-1.6.3-2.2.8-.7.6-1.1,1.4-1.2,2.4,0,.9.2,1.8.8,2.5l11.9,14.1c.6.7,1.4,1.1,2.4,1.2.9,0,1.8-.2,2.5-.8.7-.6,1.1-1.4,1.2-2.4,0-.9-.2-1.8-.8-2.5l-11.9-14.1c-.6-.7-1.4-1.1-2.4-1.2-.1,0-.2,0-.3,0Z"/>
    </g>
    <g>
      <path id="Tracé_219897" d="M16.3,117c1-.9,2.5-.7,3.4.3l13.8,16.4c.9,1,.7,2.5-.3,3.4h0s-2.3,1.9-2.3,1.9c-1,.9-2.5.7-3.4-.3h0s-13.8-16.4-13.8-16.4c-.9-1-.7-2.5.3-3.4l2.3-1.9ZM13.6,118.5c-1.3,1.1-1.4,2.9-.4,4.2l13.8,16.4c1.1,1.3,2.9,1.4,4.2.4l2.3-1.9c1.3-1.1,1.4-2.9.4-4.2l-13.8-16.4c-1.1-1.3-2.9-1.4-4.2-.4l-2.3,1.9Z"/>
      <path class="st1" d="M29.3,140.8c-1,0-2.1-.4-2.8-1.3l-13.8-16.4c-1.3-1.5-1.1-3.9.5-5.2l2.3-1.9c1.5-1.3,3.9-1.1,5.2.4l13.8,16.4c1.3,1.5,1.1,3.9-.4,5.2l-2.3,1.9c-.7.6-1.5.9-2.4.9ZM17.8,117.1c-.4,0-.8.1-1.1.4h0s-2.3,1.9-2.3,1.9c-.7.6-.8,1.7-.2,2.4l13.8,16.4c.6.7,1.7.8,2.4.2l2.3-1.9c.3-.3.6-.7.6-1.2,0-.5,0-.9-.4-1.2l-13.8-16.4c-.3-.4-.8-.6-1.3-.6Z"/>
    </g>
    <g>
      <path id="Tracé_219898" class="st0" d="M13.1,115.8c-.5.4-.5,1.1-.1,1.5l19.3,23c.4.5,1.1.5,1.5.1l20.6-17.3-20.7-24.6-20.6,17.3Z"/>
      <path class="st1" d="M33.1,141.4c0,0-.1,0-.2,0-.5,0-.9-.3-1.2-.6l-19.3-23c-.6-.7-.5-1.9.2-2.5l21.1-17.7,21.6,25.7-21.1,17.7c-.3.3-.7.4-1.1.4ZM13.6,116.3h0c-.2.1-.2.4,0,.5l19.3,23c0,0,.2.1.3.1,0,0,.2,0,.3,0l20-16.8-19.8-23.6-20,16.8Z"/>
    </g>
    <g>
      <path id="Tracé_219899" d="M12.9,115.6c-.6.5-.6,1.3-.2,1.9l19.3,23c.5.6,1.3.6,1.9.2l20.6-17.3c.1-.1.1-.3,0-.4h0s-20.7-24.6-20.7-24.6c-.1-.1-.3-.1-.4,0h0l-20.6,17.3ZM33.5,98.7l20.7,24.6c-.1-.1,0-.3,0-.4h0l-20.6,17.3c-.3.3-.8.2-1.1,0l-19.3-23c-.3-.3-.2-.8,0-1.1h0s20.6-17.3,20.6-17.3c-.1.1-.3,0-.4,0h0"/>
      <path class="st1" d="M33.1,141.7c-.6,0-1.2-.2-1.6-.7l-19.3-23c-.7-.9-.6-2.2.3-2.9h0s20.6-17.3,20.6-17.3c.2-.2.5-.2.7-.2.3,0,.5.1.7.3l20.7,24.6c.2.2.2.5.2.7s-.1.5-.3.7l-20.6,17.3c-.4.3-.9.5-1.3.5ZM33.6,99.9l-19.8,16.6s0,0,0,.1l19.3,23s0,0,.1,0l19.8-16.6-19.4-23.1ZM54.6,123.5h0c.2-.1.2-.4,0-.6l-.3.3.3.3h0ZM33.4,98.2l.3.3.3-.3c0,0-.2-.1-.3-.1-.1,0-.2,0-.3,0h0Z"/>
    </g>
    <g>
      <rect id="Rectangle_14553" class="st0" x="37.7" y="96" width="9.8" height="32.2" transform="translate(-62.1 53.6) rotate(-40)"/>
      <path class="st1" d="M49.1,128.5l-21.6-25.7,8.6-7.2,21.6,25.7-8.6,7.2ZM29.5,103l19.8,23.6,6.4-5.4-19.8-23.6-6.4,5.4Z"/>
    </g>
    <g>
      <path id="Tracé_219900" d="M35.7,96.8l20.7,24.6c-.1-.1,0-.3,0-.4h0l-7.5,6.3c.1-.1.3,0,.4,0l-20.7-24.6c.1.1,0,.3,0,.4h0s7.5-6.3,7.5-6.3c-.1.1-.3,0-.4,0h0M28.3,103.1l20.7,24.6c.1.1.3.1.4,0s0,0,0,0l7.5-6.3c.1-.1.1-.3,0-.4h0s-20.7-24.6-20.7-24.6c-.1-.1-.3-.1-.4,0h0s-7.5,6.3-7.5,6.3c-.1.1-.1.3,0,.4h0"/>
      <path class="st1" d="M49.2,128.5s0,0,0,0c-.3,0-.5-.1-.7-.3l-20.7-24.6h0c-.2-.2-.2-.5-.2-.7,0-.3.1-.5.3-.7l7.5-6.3c.4-.3,1-.3,1.4.1l20.7,24.6c.3.4.3,1-.1,1.4l-7.5,6.3c-.2.2-.4.2-.6.2ZM48.8,127.8c.1.2.4.2.6,0l-.3-.3-.3.3ZM29.9,103l19.4,23.1,6-5-19.4-23.1-6,5ZM56.6,121.2l.3.3c.2-.1.2-.4,0-.6l-.3.3ZM28.2,102.6c0,0-.1.2-.1.3,0,.1,0,.2,0,.3l.3-.3-.3-.3h0ZM28.5,102.9h0c0,0,0,0,0,0h0ZM35.7,96.3l.3.3.3-.3c0,0-.2-.1-.3-.1-.1,0-.2,0-.3,0h0Z"/>
    </g>
    <g>
      <rect id="Rectangle_14554" class="st0" x="54.2" y="82.6" width="15" height="26.8" transform="translate(-47.3 62.2) rotate(-40)"/>
      <path class="st1" d="M64.5,112l-18.1-21.6,12.6-10.5,18.1,21.6-12.6,10.5ZM48.4,90.6l16.3,19.5,10.4-8.7-16.3-19.5-10.4,8.7Z"/>
    </g>
    <g>
      <path id="Tracé_219901" d="M58.6,81.1l17.2,20.5c-.1-.1,0-.3,0-.4h0l-11.5,9.6c.1-.1.3,0,.4,0l-17.2-20.5c.1.1,0,.3,0,.4h0s11.5-9.6,11.5-9.6c-.1.1-.3,0-.4,0M47.1,90.7l17.2,20.5c.1.1.3.1.4,0l11.5-9.6c.1-.1.1-.3,0-.4h0s-17.2-20.5-17.2-20.5c-.1-.1-.3-.1-.4,0h0s-11.5,9.6-11.5,9.6c-.1.1-.1.3,0,.4h0"/>
      <path class="st1" d="M64.6,112c-.3,0-.6-.1-.8-.3l-17.2-20.5c-.2-.2-.2-.5-.2-.7,0-.3.1-.5.4-.7l11.5-9.6c.2-.2.5-.2.7-.2.3,0,.5.1.7.3l17.2,20.5c.3.4.3,1-.1,1.4l-11.5,9.6c-.2.2-.4.2-.6.2ZM64.3,111.3h0c.1.2.4.2.6,0l-.3-.3-.3.3h0ZM48.8,90.6l16,19,10-8.4-16-19-10,8.4ZM76.1,101.4l.3.3c0,0,.1-.2.1-.3,0-.1,0-.2,0-.3l-.3.3ZM47.1,90.2c0,0-.1.2-.1.3,0,.1,0,.2,0,.3l.3-.3-.3-.3h0ZM58.9,80.5c0,0-.2,0-.3,0l.3.3.3-.3c0,0-.2-.1-.3-.1Z"/>
    </g>
    <g>
      <path id="Tracé_219902" class="st0" d="M49,82.2c.1-.1.8.4,1.5,1.2l21.7,25.9c.7.8,1.1,1.5.9,1.7l-17.3,14.5c-.5.4-1.1.3-1.5-.1l-22.8-27.1c-.4-.5-.3-1.1.1-1.5l17.3-14.5Z"/>
      <path class="st1" d="M55.2,126.4c0,0-.1,0-.2,0-.5,0-.9-.3-1.2-.6l-22.8-27.1c-.6-.7-.5-1.9.2-2.5l17.5-14.7h.4c.5,0,1.1.5,1.9,1.5l21.7,25.9c.3.4.7.8.8,1.2.1.2.6,1,0,1.5l-17.3,14.5c-.3.3-.7.4-1.1.4ZM49.1,83l-16.9,14.2c-.2.1-.2.4,0,.5l22.8,27.1c0,0,.2.1.3.1.1,0,.2,0,.3,0l16.9-14.2c-.1-.2-.4-.6-.7-1l-21.7-25.9c-.3-.4-.6-.7-.8-.8Z"/>
    </g>
    <g>
      <path id="Tracé_219903" d="M49.2,82.4s0,0-.2,0c.5.3.9.7,1.2,1.1l21.7,25.9c.4.4.7.9.9,1.4,0,0,0-.1,0-.1l-17.3,14.5c-.3.3-.8.2-1.1,0l-22.8-27.1c-.3-.3-.2-.8,0-1.1h0s17.3-14.5,17.3-14.5ZM31.5,96.4c-.6.5-.6,1.3-.2,1.9l22.8,27.1c.5.6,1.3.6,1.9.2l17.3-14.5c.3-.3,0-1-.9-2.1l-21.7-25.9c-.9-1.1-1.5-1.5-1.9-1.3l-17.3,14.5Z"/>
      <path class="st1" d="M55.2,126.6c-.6,0-1.2-.2-1.6-.7l-22.8-27.1c-.7-.9-.6-2.2.3-2.9h0s17.3-14.5,17.3-14.5c.2-.2.8-.5,1.5,0,.4.2.8.7,1.3,1.3l21.7,25.9c.9,1.1,1.2,1.8,1.2,2.3,0,.3-.2.5-.4.7l-17.3,14.5c-.4.3-.9.5-1.3.5ZM49.1,83.3l-16.8,14.1s0,0,0,.1l22.8,27.1s0,0,.1,0l16.8-14.1c-.1-.2-.3-.5-.5-.7l-21.7-25.9c-.2-.3-.4-.5-.6-.7ZM73.2,110.9l.2.3c.1,0,.2-.2.2-.4h-.4ZM48.7,81.8l.2.3v-.4s-.1,0-.2.1h0Z"/>
    </g>
    <g>
      <path id="Tracé_219904" class="st0" d="M50,77.8c.5.5,1,1,1.5,1.6l24.8,29.6c.5.5.9,1.1,1.3,1.7l-5,4.2c-.5.4-1.1.3-1.5-.1l-26.2-31.2c-.4-.5-.3-1.1.1-1.5l5-4.2Z"/>
      <path class="st1" d="M71.9,115.8c0,0-.1,0-.2,0-.5,0-.9-.3-1.2-.6l-26.2-31.2c-.3-.4-.5-.8-.4-1.3,0-.5.3-.9.6-1.2l5.5-4.6.5.4c.6.5,1.1,1.1,1.6,1.7l24.8,29.5c.5.5,1,1.1,1.4,1.8l.3.5-5.5,4.6c-.3.3-.7.4-1.1.4ZM50,78.7l-4.5,3.8c0,0-.1.2-.1.3s0,.2,0,.3l26.2,31.2c0,0,.2.1.3.1,0,0,.2,0,.3,0l4.5-3.8c-.3-.4-.6-.8-.9-1.1l-24.8-29.6c-.3-.4-.6-.8-1-1.1Z"/>
    </g>
    <g>
      <path id="Tracé_219905" d="M50.2,78c0,0-.2,0-.3,0,.5.5.9,1,1.4,1.5l24.8,29.6c.4.5.9,1,1.2,1.6,0-.1,0-.2,0-.3l-5,4.2c-.3.3-.8.2-1.1,0l-26.2-31.2c-.3-.3-.2-.8,0-1.1h0s5-4.2,5-4.2ZM44.9,81.8c-.6.5-.6,1.3-.2,1.9l26.2,31.2c.5.6,1.3.6,1.9.2l5-4.2c.2-.2.3-.3-1.3-2.1l-24.8-29.6c-1.6-1.9-1.6-1.8-1.9-1.6l-5,4.2Z"/>
      <path class="st1" d="M71.9,116.1c-.6,0-1.2-.2-1.6-.7l-26.2-31.2c-.7-.9-.6-2.2.2-2.9h0s5-4.2,5-4.2c.8-.7,1.4,0,2.8,1.7l24.8,29.6c.8,1,1.2,1.5,1.4,1.8.3.5.2,1-.2,1.3l-5,4.2c-.4.3-.9.5-1.3.5ZM50,79.1l-4.3,3.6s0,0,0,.1l26.2,31.2s0,0,.1,0l4.3-3.6c-.2-.3-.5-.6-.7-.9l-24.8-29.6c-.2-.3-.5-.6-.8-.9ZM77.7,110.7l.2.3c.1-.1.2-.3.1-.5l-.4.2ZM49.8,77.5l.2.3.2-.3c-.2,0-.3,0-.5,0Z"/>
    </g>
  </g>
</svg>